<svg width="32" height="32" viewBox="0 0 32 32" fill="none" xmlns="http://www.w3.org/2000/svg">
<path d="M16.0143 2.93066C23.2415 2.93066 29.089 8.77814 29.089 15.9944C29.089 23.2107 23.2415 29.0691 16.0143 29.0691C8.78705 29.0691 2.93958 23.2216 2.93958 16.0054C2.93958 8.78909 8.78705 2.93066 16.0143 2.93066Z" fill="#EF4444"/>
<path d="M16.0152 30C8.28427 30 1.99878 23.7255 1.99878 16.0055C1.99878 8.27454 8.28427 2 16.0152 2C23.7461 2 30.0316 8.27454 30.0316 15.9945C30.0316 23.7145 23.7461 30 16.0152 30ZM27.8306 17.9108C27.4254 17.7794 24.1294 16.8049 20.3734 17.3962C21.9393 21.6887 22.5745 25.1928 22.6949 25.9155C25.3887 24.1087 27.305 21.2397 27.8306 17.9108ZM20.691 27.0215C20.5158 25.9703 19.815 22.3129 18.1396 17.9546C18.1177 17.9656 18.0848 17.9765 18.0629 17.9765C11.3066 20.3309 8.88654 25.0067 8.66753 25.4447C10.6933 27.0215 13.2448 27.9632 16.0152 27.9632C17.6687 27.9742 19.2565 27.6347 20.691 27.0215ZM7.12353 24.0102C7.39729 23.5503 10.6824 18.1189 16.8584 16.115C17.0117 16.0602 17.1759 16.0164 17.3292 15.9726C17.0336 15.2937 16.7051 14.6148 16.3547 13.9468C10.3758 15.7317 4.57211 15.6551 4.04649 15.6441C4.04649 15.7646 4.03554 15.885 4.03554 16.0055C4.04649 19.0825 5.20723 21.8858 7.12353 24.0102ZM4.29835 13.5636C4.83492 13.5745 9.76256 13.5964 15.3691 12.1072C13.3871 8.58115 11.2409 5.62456 10.9342 5.1975C7.5725 6.77435 5.07582 9.86234 4.29835 13.5636ZM13.2119 4.38717C13.5404 4.82519 15.7195 7.78178 17.6797 11.3844C21.9393 9.78569 23.7352 7.37661 23.9542 7.07C21.8408 5.1975 19.0594 4.05866 16.0152 4.05866C15.0516 4.05866 14.1098 4.17912 13.2119 4.38717ZM25.2792 8.44975C25.0273 8.78921 23.0234 11.3625 18.5995 13.1693C18.8732 13.7388 19.147 14.3191 19.3989 14.8995C19.4865 15.1075 19.5741 15.3156 19.6617 15.5127C23.6476 15.009 27.6007 15.8193 27.9949 15.896C27.962 13.0817 26.9546 10.4865 25.2792 8.44975Z" fill="#1C1917"/>
</svg>
