<svg width="72" height="72" viewBox="0 0 72 72" fill="none" xmlns="http://www.w3.org/2000/svg">
<rect width="72" height="72" rx="36" fill="#EF4444"/>
<path d="M24.8889 46C24.8889 47.1046 25.8838 48 27.1111 48C28.3384 48 29.3333 47.1046 29.3333 46V26C29.3333 24.8954 28.3384 24 27.1111 24C25.8838 24 24.8889 24.8954 24.8889 26V46ZM33.7778 54C33.7778 55.1046 34.7727 56 36 56C37.2273 56 38.2222 55.1046 38.2222 54V18C38.2222 16.8954 37.2273 16 36 16C34.7727 16 33.7778 16.8954 33.7778 18V54ZM16 38C16 39.1046 16.9949 40 18.2222 40C19.4495 40 20.4444 39.1046 20.4444 38V34C20.4444 32.8954 19.4495 32 18.2222 32C16.9949 32 16 32.8954 16 34V38ZM42.6667 46C42.6667 47.1046 43.6616 48 44.8889 48C46.1162 48 47.1111 47.1046 47.1111 46V26C47.1111 24.8954 46.1162 24 44.8889 24C43.6616 24 42.6667 24.8954 42.6667 26V46ZM53.7778 32C52.5505 32 51.5556 32.8954 51.5556 34V38C51.5556 39.1046 52.5505 40 53.7778 40C55.0051 40 56 39.1046 56 38V34C56 32.8954 55.0051 32 53.7778 32Z" fill="#0F1822"/>
</svg>
