<svg width="310" height="85" viewBox="0 0 310 85" fill="none" xmlns="http://www.w3.org/2000/svg">
<path d="M24.8889 52.5C24.8889 53.6046 25.8838 54.5 27.1111 54.5C28.3384 54.5 29.3333 53.6046 29.3333 52.5V32.5C29.3333 31.3954 28.3384 30.5 27.1111 30.5C25.8838 30.5 24.8889 31.3954 24.8889 32.5V52.5ZM33.7778 60.5C33.7778 61.6046 34.7727 62.5 36 62.5C37.2273 62.5 38.2222 61.6046 38.2222 60.5V24.5C38.2222 23.3954 37.2273 22.5 36 22.5C34.7727 22.5 33.7778 23.3954 33.7778 24.5V60.5ZM16 44.5C16 45.6046 16.9949 46.5 18.2222 46.5C19.4495 46.5 20.4444 45.6046 20.4444 44.5V40.5C20.4444 39.3954 19.4495 38.5 18.2222 38.5C16.9949 38.5 16 39.3954 16 40.5V44.5ZM42.6667 52.5C42.6667 53.6046 43.6616 54.5 44.8889 54.5C46.1162 54.5 47.1111 53.6046 47.1111 52.5V32.5C47.1111 31.3954 46.1162 30.5 44.8889 30.5C43.6616 30.5 42.6667 31.3954 42.6667 32.5V52.5ZM53.7778 38.5C52.5505 38.5 51.5556 39.3954 51.5556 40.5V44.5C51.5556 45.6046 52.5505 46.5 53.7778 46.5C55.0051 46.5 56 45.6046 56 44.5V40.5C56 39.3954 55.0051 38.5 53.7778 38.5Z" fill="#FF4654"/>
<rect x="2.5" y="9" width="67" height="67" rx="33.5" stroke="#EF4444" stroke-width="5"/>
<path d="M91.6016 16.3125L102.289 39.6562L112.977 16.3125H124.473L107.633 48.8672V67.5H96.9453V48.8672L80.0703 16.3125H91.6016ZM124.578 48.8672V48.1289C124.578 45.3398 124.977 42.7734 125.773 40.4297C126.57 38.0625 127.73 36.0117 129.254 34.2773C130.777 32.543 132.652 31.1953 134.879 30.2344C137.105 29.25 139.66 28.7578 142.543 28.7578C145.426 28.7578 147.992 29.25 150.242 30.2344C152.492 31.1953 154.379 32.543 155.902 34.2773C157.449 36.0117 158.621 38.0625 159.418 40.4297C160.215 42.7734 160.613 45.3398 160.613 48.1289V48.8672C160.613 51.6328 160.215 54.1992 159.418 56.5664C158.621 58.9102 157.449 60.9609 155.902 62.7188C154.379 64.4531 152.504 65.8008 150.277 66.7617C148.051 67.7227 145.496 68.2031 142.613 68.2031C139.73 68.2031 137.164 67.7227 134.914 66.7617C132.688 65.8008 130.801 64.4531 129.254 62.7188C127.73 60.9609 126.57 58.9102 125.773 56.5664C124.977 54.1992 124.578 51.6328 124.578 48.8672ZM134.703 48.1289V48.8672C134.703 50.4609 134.844 51.9492 135.125 53.332C135.406 54.7148 135.852 55.9336 136.461 56.9883C137.094 58.0195 137.914 58.8281 138.922 59.4141C139.93 60 141.16 60.293 142.613 60.293C144.02 60.293 145.227 60 146.234 59.4141C147.242 58.8281 148.051 58.0195 148.66 56.9883C149.27 55.9336 149.715 54.7148 149.996 53.332C150.301 51.9492 150.453 50.4609 150.453 48.8672V48.1289C150.453 46.582 150.301 45.1289 149.996 43.7695C149.715 42.3867 149.258 41.168 148.625 40.1133C148.016 39.0352 147.207 38.1914 146.199 37.582C145.191 36.9727 143.973 36.668 142.543 36.668C141.113 36.668 139.895 36.9727 138.887 37.582C137.902 38.1914 137.094 39.0352 136.461 40.1133C135.852 41.168 135.406 42.3867 135.125 43.7695C134.844 45.1289 134.703 46.582 134.703 48.1289ZM189.336 58.3945V29.4609H199.461V67.5H189.934L189.336 58.3945ZM190.461 50.5898L193.449 50.5195C193.449 53.0508 193.156 55.4062 192.57 57.5859C191.984 59.7422 191.105 61.6172 189.934 63.2109C188.762 64.7812 187.285 66.0117 185.504 66.9023C183.723 67.7695 181.625 68.2031 179.211 68.2031C177.359 68.2031 175.648 67.9453 174.078 67.4297C172.531 66.8906 171.195 66.0586 170.07 64.9336C168.969 63.7852 168.102 62.3203 167.469 60.5391C166.859 58.7344 166.555 56.5664 166.555 54.0352V29.4609H176.68V54.1055C176.68 55.2305 176.809 56.1797 177.066 56.9531C177.348 57.7266 177.734 58.3594 178.227 58.8516C178.719 59.3438 179.293 59.6953 179.949 59.9062C180.629 60.1172 181.379 60.2227 182.199 60.2227C184.285 60.2227 185.926 59.8008 187.121 58.957C188.34 58.1133 189.195 56.9648 189.688 55.5117C190.203 54.0352 190.461 52.3945 190.461 50.5898ZM223.543 67.5H212.398L212.469 59.2734H223.543C226.309 59.2734 228.641 58.6523 230.539 57.4102C232.438 56.1445 233.867 54.3047 234.828 51.8906C235.812 49.4766 236.305 46.5586 236.305 43.1367V40.6406C236.305 38.0156 236.023 35.707 235.461 33.7148C234.922 31.7227 234.113 30.0469 233.035 28.6875C231.957 27.3281 230.633 26.3086 229.062 25.6289C227.492 24.9258 225.688 24.5742 223.648 24.5742H212.188V16.3125H223.648C227.07 16.3125 230.199 16.8984 233.035 18.0703C235.895 19.2188 238.367 20.8711 240.453 23.0273C242.539 25.1836 244.145 27.7617 245.27 30.7617C246.418 33.7383 246.992 37.0547 246.992 40.7109V43.1367C246.992 46.7695 246.418 50.0859 245.27 53.0859C244.145 56.0859 242.539 58.6641 240.453 60.8203C238.391 62.9531 235.918 64.6055 233.035 65.7773C230.176 66.9258 227.012 67.5 223.543 67.5ZM218.375 16.3125V67.5H207.828V16.3125H218.375ZM264.711 29.4609V67.5H254.551V29.4609H264.711ZM253.918 19.5469C253.918 18.0703 254.434 16.8516 255.465 15.8906C256.496 14.9297 257.879 14.4492 259.613 14.4492C261.324 14.4492 262.695 14.9297 263.727 15.8906C264.781 16.8516 265.309 18.0703 265.309 19.5469C265.309 21.0234 264.781 22.2422 263.727 23.2031C262.695 24.1641 261.324 24.6445 259.613 24.6445C257.879 24.6445 256.496 24.1641 255.465 23.2031C254.434 22.2422 253.918 21.0234 253.918 19.5469ZM271.461 48.8672V48.1289C271.461 45.3398 271.859 42.7734 272.656 40.4297C273.453 38.0625 274.613 36.0117 276.137 34.2773C277.66 32.543 279.535 31.1953 281.762 30.2344C283.988 29.25 286.543 28.7578 289.426 28.7578C292.309 28.7578 294.875 29.25 297.125 30.2344C299.375 31.1953 301.262 32.543 302.785 34.2773C304.332 36.0117 305.504 38.0625 306.301 40.4297C307.098 42.7734 307.496 45.3398 307.496 48.1289V48.8672C307.496 51.6328 307.098 54.1992 306.301 56.5664C305.504 58.9102 304.332 60.9609 302.785 62.7188C301.262 64.4531 299.387 65.8008 297.16 66.7617C294.934 67.7227 292.379 68.2031 289.496 68.2031C286.613 68.2031 284.047 67.7227 281.797 66.7617C279.57 65.8008 277.684 64.4531 276.137 62.7188C274.613 60.9609 273.453 58.9102 272.656 56.5664C271.859 54.1992 271.461 51.6328 271.461 48.8672ZM281.586 48.1289V48.8672C281.586 50.4609 281.727 51.9492 282.008 53.332C282.289 54.7148 282.734 55.9336 283.344 56.9883C283.977 58.0195 284.797 58.8281 285.805 59.4141C286.812 60 288.043 60.293 289.496 60.293C290.902 60.293 292.109 60 293.117 59.4141C294.125 58.8281 294.934 58.0195 295.543 56.9883C296.152 55.9336 296.598 54.7148 296.879 53.332C297.184 51.9492 297.336 50.4609 297.336 48.8672V48.1289C297.336 46.582 297.184 45.1289 296.879 43.7695C296.598 42.3867 296.141 41.168 295.508 40.1133C294.898 39.0352 294.09 38.1914 293.082 37.582C292.074 36.9727 290.855 36.668 289.426 36.668C287.996 36.668 286.777 36.9727 285.77 37.582C284.785 38.1914 283.977 39.0352 283.344 40.1133C282.734 41.168 282.289 42.3867 282.008 43.7695C281.727 45.1289 281.586 46.582 281.586 48.1289Z" fill="#FF4654"/>
</svg>
