<svg width="230" height="161" viewBox="0 0 230 161" fill="none" xmlns="http://www.w3.org/2000/svg">
<path d="M103.889 46.5C103.889 47.6046 104.884 48.5 106.111 48.5C107.338 48.5 108.333 47.6046 108.333 46.5V26.5C108.333 25.3954 107.338 24.5 106.111 24.5C104.884 24.5 103.889 25.3954 103.889 26.5V46.5ZM112.778 54.5C112.778 55.6046 113.773 56.5 115 56.5C116.227 56.5 117.222 55.6046 117.222 54.5V18.5C117.222 17.3954 116.227 16.5 115 16.5C113.773 16.5 112.778 17.3954 112.778 18.5V54.5ZM95 38.5C95 39.6046 95.9949 40.5 97.2222 40.5C98.4495 40.5 99.4444 39.6046 99.4444 38.5V34.5C99.4444 33.3954 98.4495 32.5 97.2222 32.5C95.9949 32.5 95 33.3954 95 34.5V38.5ZM121.667 46.5C121.667 47.6046 122.662 48.5 123.889 48.5C125.116 48.5 126.111 47.6046 126.111 46.5V26.5C126.111 25.3954 125.116 24.5 123.889 24.5C122.662 24.5 121.667 25.3954 121.667 26.5V46.5ZM132.778 32.5C131.55 32.5 130.556 33.3954 130.556 34.5V38.5C130.556 39.6046 131.55 40.5 132.778 40.5C134.005 40.5 135 39.6046 135 38.5V34.5C135 33.3954 134.005 32.5 132.778 32.5Z" fill="#FF4654"/>
<rect x="81.5" y="3" width="67" height="67" rx="33.5" stroke="#EF4444" stroke-width="5"/>
<path d="M11.6016 92.3125L22.2891 115.656L32.9766 92.3125H44.4727L27.6328 124.867V143.5H16.9453V124.867L0.0703125 92.3125H11.6016ZM44.5781 124.867V124.129C44.5781 121.34 44.9766 118.773 45.7734 116.43C46.5703 114.062 47.7305 112.012 49.2539 110.277C50.7773 108.543 52.6523 107.195 54.8789 106.234C57.1055 105.25 59.6602 104.758 62.543 104.758C65.4258 104.758 67.9922 105.25 70.2422 106.234C72.4922 107.195 74.3789 108.543 75.9023 110.277C77.4492 112.012 78.6211 114.062 79.418 116.43C80.2148 118.773 80.6133 121.34 80.6133 124.129V124.867C80.6133 127.633 80.2148 130.199 79.418 132.566C78.6211 134.91 77.4492 136.961 75.9023 138.719C74.3789 140.453 72.5039 141.801 70.2773 142.762C68.0508 143.723 65.4961 144.203 62.6133 144.203C59.7305 144.203 57.1641 143.723 54.9141 142.762C52.6875 141.801 50.8008 140.453 49.2539 138.719C47.7305 136.961 46.5703 134.91 45.7734 132.566C44.9766 130.199 44.5781 127.633 44.5781 124.867ZM54.7031 124.129V124.867C54.7031 126.461 54.8438 127.949 55.125 129.332C55.4062 130.715 55.8516 131.934 56.4609 132.988C57.0938 134.02 57.9141 134.828 58.9219 135.414C59.9297 136 61.1602 136.293 62.6133 136.293C64.0195 136.293 65.2266 136 66.2344 135.414C67.2422 134.828 68.0508 134.02 68.6602 132.988C69.2695 131.934 69.7148 130.715 69.9961 129.332C70.3008 127.949 70.4531 126.461 70.4531 124.867V124.129C70.4531 122.582 70.3008 121.129 69.9961 119.77C69.7148 118.387 69.2578 117.168 68.625 116.113C68.0156 115.035 67.207 114.191 66.1992 113.582C65.1914 112.973 63.9727 112.668 62.543 112.668C61.1133 112.668 59.8945 112.973 58.8867 113.582C57.9023 114.191 57.0938 115.035 56.4609 116.113C55.8516 117.168 55.4062 118.387 55.125 119.77C54.8438 121.129 54.7031 122.582 54.7031 124.129ZM109.336 134.395V105.461H119.461V143.5H109.934L109.336 134.395ZM110.461 126.59L113.449 126.52C113.449 129.051 113.156 131.406 112.57 133.586C111.984 135.742 111.105 137.617 109.934 139.211C108.762 140.781 107.285 142.012 105.504 142.902C103.723 143.77 101.625 144.203 99.2109 144.203C97.3594 144.203 95.6484 143.945 94.0781 143.43C92.5312 142.891 91.1953 142.059 90.0703 140.934C88.9688 139.785 88.1016 138.32 87.4688 136.539C86.8594 134.734 86.5547 132.566 86.5547 130.035V105.461H96.6797V130.105C96.6797 131.23 96.8086 132.18 97.0664 132.953C97.3477 133.727 97.7344 134.359 98.2266 134.852C98.7188 135.344 99.293 135.695 99.9492 135.906C100.629 136.117 101.379 136.223 102.199 136.223C104.285 136.223 105.926 135.801 107.121 134.957C108.34 134.113 109.195 132.965 109.688 131.512C110.203 130.035 110.461 128.395 110.461 126.59ZM143.543 143.5H132.398L132.469 135.273H143.543C146.309 135.273 148.641 134.652 150.539 133.41C152.438 132.145 153.867 130.305 154.828 127.891C155.812 125.477 156.305 122.559 156.305 119.137V116.641C156.305 114.016 156.023 111.707 155.461 109.715C154.922 107.723 154.113 106.047 153.035 104.688C151.957 103.328 150.633 102.309 149.062 101.629C147.492 100.926 145.688 100.574 143.648 100.574H132.188V92.3125H143.648C147.07 92.3125 150.199 92.8984 153.035 94.0703C155.895 95.2188 158.367 96.8711 160.453 99.0273C162.539 101.184 164.145 103.762 165.27 106.762C166.418 109.738 166.992 113.055 166.992 116.711V119.137C166.992 122.77 166.418 126.086 165.27 129.086C164.145 132.086 162.539 134.664 160.453 136.82C158.391 138.953 155.918 140.605 153.035 141.777C150.176 142.926 147.012 143.5 143.543 143.5ZM138.375 92.3125V143.5H127.828V92.3125H138.375ZM184.711 105.461V143.5H174.551V105.461H184.711ZM173.918 95.5469C173.918 94.0703 174.434 92.8516 175.465 91.8906C176.496 90.9297 177.879 90.4492 179.613 90.4492C181.324 90.4492 182.695 90.9297 183.727 91.8906C184.781 92.8516 185.309 94.0703 185.309 95.5469C185.309 97.0234 184.781 98.2422 183.727 99.2031C182.695 100.164 181.324 100.645 179.613 100.645C177.879 100.645 176.496 100.164 175.465 99.2031C174.434 98.2422 173.918 97.0234 173.918 95.5469ZM191.461 124.867V124.129C191.461 121.34 191.859 118.773 192.656 116.43C193.453 114.062 194.613 112.012 196.137 110.277C197.66 108.543 199.535 107.195 201.762 106.234C203.988 105.25 206.543 104.758 209.426 104.758C212.309 104.758 214.875 105.25 217.125 106.234C219.375 107.195 221.262 108.543 222.785 110.277C224.332 112.012 225.504 114.062 226.301 116.43C227.098 118.773 227.496 121.34 227.496 124.129V124.867C227.496 127.633 227.098 130.199 226.301 132.566C225.504 134.91 224.332 136.961 222.785 138.719C221.262 140.453 219.387 141.801 217.16 142.762C214.934 143.723 212.379 144.203 209.496 144.203C206.613 144.203 204.047 143.723 201.797 142.762C199.57 141.801 197.684 140.453 196.137 138.719C194.613 136.961 193.453 134.91 192.656 132.566C191.859 130.199 191.461 127.633 191.461 124.867ZM201.586 124.129V124.867C201.586 126.461 201.727 127.949 202.008 129.332C202.289 130.715 202.734 131.934 203.344 132.988C203.977 134.02 204.797 134.828 205.805 135.414C206.812 136 208.043 136.293 209.496 136.293C210.902 136.293 212.109 136 213.117 135.414C214.125 134.828 214.934 134.02 215.543 132.988C216.152 131.934 216.598 130.715 216.879 129.332C217.184 127.949 217.336 126.461 217.336 124.867V124.129C217.336 122.582 217.184 121.129 216.879 119.77C216.598 118.387 216.141 117.168 215.508 116.113C214.898 115.035 214.09 114.191 213.082 113.582C212.074 112.973 210.855 112.668 209.426 112.668C207.996 112.668 206.777 112.973 205.77 113.582C204.785 114.191 203.977 115.035 203.344 116.113C202.734 117.168 202.289 118.387 202.008 119.77C201.727 121.129 201.586 122.582 201.586 124.129Z" fill="#FF4654"/>
</svg>
