<svg width="310" height="84" viewBox="0 0 310 84" fill="none" xmlns="http://www.w3.org/2000/svg">
<rect y="6" width="72" height="72" rx="36" fill="#EF4444"/>
<path d="M24.8889 52C24.8889 53.1046 25.8838 54 27.1111 54V54C28.3384 54 29.3333 53.1046 29.3333 52V32C29.3333 30.8954 28.3384 30 27.1111 30V30C25.8838 30 24.8889 30.8954 24.8889 32V52ZM33.7778 60C33.7778 61.1046 34.7727 62 36 62V62C37.2273 62 38.2222 61.1046 38.2222 60V24C38.2222 22.8954 37.2273 22 36 22V22C34.7727 22 33.7778 22.8954 33.7778 24V60ZM16 44C16 45.1046 16.9949 46 18.2222 46V46C19.4495 46 20.4444 45.1046 20.4444 44V40C20.4444 38.8954 19.4495 38 18.2222 38V38C16.9949 38 16 38.8954 16 40V44ZM42.6667 52C42.6667 53.1046 43.6616 54 44.8889 54V54C46.1162 54 47.1111 53.1046 47.1111 52V32C47.1111 30.8954 46.1162 30 44.8889 30V30C43.6616 30 42.6667 30.8954 42.6667 32V52ZM53.7778 38C52.5505 38 51.5556 38.8954 51.5556 40V44C51.5556 45.1046 52.5505 46 53.7778 46V46C55.0051 46 56 45.1046 56 44V40C56 38.8954 55.0051 38 53.7778 38V38Z" fill="#0F1822"/>
<path d="M91.6016 15.8125L102.289 39.1562L112.977 15.8125H124.473L107.633 48.3672V67H96.9453V48.3672L80.0703 15.8125H91.6016ZM124.578 48.3672V47.6289C124.578 44.8398 124.977 42.2734 125.773 39.9297C126.57 37.5625 127.73 35.5117 129.254 33.7773C130.777 32.043 132.652 30.6953 134.879 29.7344C137.105 28.75 139.66 28.2578 142.543 28.2578C145.426 28.2578 147.992 28.75 150.242 29.7344C152.492 30.6953 154.379 32.043 155.902 33.7773C157.449 35.5117 158.621 37.5625 159.418 39.9297C160.215 42.2734 160.613 44.8398 160.613 47.6289V48.3672C160.613 51.1328 160.215 53.6992 159.418 56.0664C158.621 58.4102 157.449 60.4609 155.902 62.2188C154.379 63.9531 152.504 65.3008 150.277 66.2617C148.051 67.2227 145.496 67.7031 142.613 67.7031C139.73 67.7031 137.164 67.2227 134.914 66.2617C132.688 65.3008 130.801 63.9531 129.254 62.2188C127.73 60.4609 126.57 58.4102 125.773 56.0664C124.977 53.6992 124.578 51.1328 124.578 48.3672ZM134.703 47.6289V48.3672C134.703 49.9609 134.844 51.4492 135.125 52.832C135.406 54.2148 135.852 55.4336 136.461 56.4883C137.094 57.5195 137.914 58.3281 138.922 58.9141C139.93 59.5 141.16 59.793 142.613 59.793C144.02 59.793 145.227 59.5 146.234 58.9141C147.242 58.3281 148.051 57.5195 148.66 56.4883C149.27 55.4336 149.715 54.2148 149.996 52.832C150.301 51.4492 150.453 49.9609 150.453 48.3672V47.6289C150.453 46.082 150.301 44.6289 149.996 43.2695C149.715 41.8867 149.258 40.668 148.625 39.6133C148.016 38.5352 147.207 37.6914 146.199 37.082C145.191 36.4727 143.973 36.168 142.543 36.168C141.113 36.168 139.895 36.4727 138.887 37.082C137.902 37.6914 137.094 38.5352 136.461 39.6133C135.852 40.668 135.406 41.8867 135.125 43.2695C134.844 44.6289 134.703 46.082 134.703 47.6289ZM189.336 57.8945V28.9609H199.461V67H189.934L189.336 57.8945ZM190.461 50.0898L193.449 50.0195C193.449 52.5508 193.156 54.9062 192.57 57.0859C191.984 59.2422 191.105 61.1172 189.934 62.7109C188.762 64.2812 187.285 65.5117 185.504 66.4023C183.723 67.2695 181.625 67.7031 179.211 67.7031C177.359 67.7031 175.648 67.4453 174.078 66.9297C172.531 66.3906 171.195 65.5586 170.07 64.4336C168.969 63.2852 168.102 61.8203 167.469 60.0391C166.859 58.2344 166.555 56.0664 166.555 53.5352V28.9609H176.68V53.6055C176.68 54.7305 176.809 55.6797 177.066 56.4531C177.348 57.2266 177.734 57.8594 178.227 58.3516C178.719 58.8438 179.293 59.1953 179.949 59.4062C180.629 59.6172 181.379 59.7227 182.199 59.7227C184.285 59.7227 185.926 59.3008 187.121 58.457C188.34 57.6133 189.195 56.4648 189.688 55.0117C190.203 53.5352 190.461 51.8945 190.461 50.0898ZM223.543 67H212.398L212.469 58.7734H223.543C226.309 58.7734 228.641 58.1523 230.539 56.9102C232.438 55.6445 233.867 53.8047 234.828 51.3906C235.812 48.9766 236.305 46.0586 236.305 42.6367V40.1406C236.305 37.5156 236.023 35.207 235.461 33.2148C234.922 31.2227 234.113 29.5469 233.035 28.1875C231.957 26.8281 230.633 25.8086 229.062 25.1289C227.492 24.4258 225.688 24.0742 223.648 24.0742H212.188V15.8125H223.648C227.07 15.8125 230.199 16.3984 233.035 17.5703C235.895 18.7188 238.367 20.3711 240.453 22.5273C242.539 24.6836 244.145 27.2617 245.27 30.2617C246.418 33.2383 246.992 36.5547 246.992 40.2109V42.6367C246.992 46.2695 246.418 49.5859 245.27 52.5859C244.145 55.5859 242.539 58.1641 240.453 60.3203C238.391 62.4531 235.918 64.1055 233.035 65.2773C230.176 66.4258 227.012 67 223.543 67ZM218.375 15.8125V67H207.828V15.8125H218.375ZM264.711 28.9609V67H254.551V28.9609H264.711ZM253.918 19.0469C253.918 17.5703 254.434 16.3516 255.465 15.3906C256.496 14.4297 257.879 13.9492 259.613 13.9492C261.324 13.9492 262.695 14.4297 263.727 15.3906C264.781 16.3516 265.309 17.5703 265.309 19.0469C265.309 20.5234 264.781 21.7422 263.727 22.7031C262.695 23.6641 261.324 24.1445 259.613 24.1445C257.879 24.1445 256.496 23.6641 255.465 22.7031C254.434 21.7422 253.918 20.5234 253.918 19.0469ZM271.461 48.3672V47.6289C271.461 44.8398 271.859 42.2734 272.656 39.9297C273.453 37.5625 274.613 35.5117 276.137 33.7773C277.66 32.043 279.535 30.6953 281.762 29.7344C283.988 28.75 286.543 28.2578 289.426 28.2578C292.309 28.2578 294.875 28.75 297.125 29.7344C299.375 30.6953 301.262 32.043 302.785 33.7773C304.332 35.5117 305.504 37.5625 306.301 39.9297C307.098 42.2734 307.496 44.8398 307.496 47.6289V48.3672C307.496 51.1328 307.098 53.6992 306.301 56.0664C305.504 58.4102 304.332 60.4609 302.785 62.2188C301.262 63.9531 299.387 65.3008 297.16 66.2617C294.934 67.2227 292.379 67.7031 289.496 67.7031C286.613 67.7031 284.047 67.2227 281.797 66.2617C279.57 65.3008 277.684 63.9531 276.137 62.2188C274.613 60.4609 273.453 58.4102 272.656 56.0664C271.859 53.6992 271.461 51.1328 271.461 48.3672ZM281.586 47.6289V48.3672C281.586 49.9609 281.727 51.4492 282.008 52.832C282.289 54.2148 282.734 55.4336 283.344 56.4883C283.977 57.5195 284.797 58.3281 285.805 58.9141C286.812 59.5 288.043 59.793 289.496 59.793C290.902 59.793 292.109 59.5 293.117 58.9141C294.125 58.3281 294.934 57.5195 295.543 56.4883C296.152 55.4336 296.598 54.2148 296.879 52.832C297.184 51.4492 297.336 49.9609 297.336 48.3672V47.6289C297.336 46.082 297.184 44.6289 296.879 43.2695C296.598 41.8867 296.141 40.668 295.508 39.6133C294.898 38.5352 294.09 37.6914 293.082 37.082C292.074 36.4727 290.855 36.168 289.426 36.168C287.996 36.168 286.777 36.4727 285.77 37.082C284.785 37.6914 283.977 38.5352 283.344 39.6133C282.734 40.668 282.289 41.8867 282.008 43.2695C281.727 44.6289 281.586 46.082 281.586 47.6289Z" fill="#FF4654"/>
</svg>
