<svg viewBox="0 0 1920 1080" fill="none" xmlns="http://www.w3.org/2000/svg">
  <rect width="10.08" height="10.08" fill="#EF4444" transform="matrix(0, -1, 1, 0, 926.352338790894, 823.369506835938)" style="transform-origin: 5.04002px 5.04px;"/>
  <rect width="3.36" height="3.36" fill="#EF4444" transform="matrix(0, -1, 1, 0, 1147.277724504471, 861.170349121094)" style="transform-origin: 1.67999px 1.68px;"/>
  <rect width="3.36" height="3.36" fill="#EF4444" transform="matrix(0, -1, 1, 0, 1074.195937395096, 740.207336425781)" style="transform-origin: 1.67999px 1.68px;"/>
  <rect width="6.72" height="3.36" fill="#EF4444" transform="matrix(0, -1, 1, 0, 980.113730192185, 762.887993097305)" style="transform-origin: 3.35998px 1.68001px;"/>
  <rect width="6.72" height="3.36" fill="#EF4444" transform="matrix(0, -1, 1, 0, 980.113730192185, 752.807731866837)" style="transform-origin: 3.35998px 1.68001px;"/>
  <rect width="119.283" height="3.36" fill="#EF4444" transform="matrix(0, -1, 1, 0, 1176.678371429443, 762.047901153565)" style="transform-origin: 59.6415px 1.67995px;"/>
  <rect x="1321.934" y="297.918" width="9.04" height="9.04" stroke="#EF4444" style="transform-origin: 1326.45px 302.438px;" transform="matrix(0, -1, 1, -1e-12, -558.249633789066, -155.009887694887)"/>
  <rect x="560.086" y="221.821" width="5.753" height="2.466" stroke="#EF4444" style="transform-origin: 562.962px 223.054px;" transform="matrix(1.000000000001, 0, -3e-12, 0.999999999999, 121.414299011246, 25.460149765247)"/>
  <rect x="569.948" y="221.821" width="5.753" height="2.466" stroke="#EF4444" style="transform-origin: 572.824px 223.054px;" transform="matrix(1.000000000001, 0, -2e-12, 1.000000000001, 121.414001464721, 25.459999084046)"/>
  <rect x="1290.704" y="417.907" width="5.753" height="2.466" stroke="#EF4444" style="transform-origin: 1293.58px 419.14px;" transform="matrix(0, -1.000000000004, 1.000000000001, -4e-12, -408.674194336305, -238.838500969468)"/>
  <rect x="1300.566" y="417.907" width="5.753" height="2.466" stroke="#EF4444" style="transform-origin: 1303.44px 419.14px;" transform="matrix(0, -1.000000000004, 1.000000000001, 4e-12, -418.536254883212, -248.700561519799)"/>
  <rect x="759.575" y="280.155" width="115.88" height="2.466" stroke="#EF4444" style="transform-origin: 817.515px 281.388px;"/>
</svg>